<?xml version="1.0" encoding="UTF-8"?>
<svg width="16px" height="16px" viewBox="0 0 16 16" version="1.1" xmlns="http://www.w3.org/2000/svg" xmlns:xlink="http://www.w3.org/1999/xlink">
    <!-- Generator: Sketch 50 (54983) - http://www.bohemiancoding.com/sketch -->
    <title>Group</title>
    <desc>Created with Sketch.</desc>
    <defs></defs>
    <g id="Symbols" stroke="none" stroke-width="1" fill="none" fill-rule="evenodd">
        <g id="coffeeBeanBlack" fill="#1E0F0E">
            <g id="Group">
                <path d="M0.612123823,13 C1.83906114,10.4811583 4.07730666,8.6973808 7.32686038,7.64866754 C12.201191,6.07559764 14.3753087,3.26551979 14.9960981,1.49178644 C15.0365436,1.37622453 14.7509589,1.21237398 14.675364,1.12269727 C13.5562888,-0.204839508 8.2177937,-1.13305737 3.5363799,3.02393415 C0.19793146,5.98840224 -0.776820565,9.31375753 0.612123823,13 Z" id="Path-2"></path>
                <path d="M1,14.4845152 C1.63989791,11.781025 3.86517149,9.82514351 7.67582073,8.61687084 C13.3917946,6.80446183 15.0444782,2.65231596 15.2875241,2.04532794 C15.5305699,1.43833991 17.7915772,7.03418604 12.733699,12.4324245 C10.1379576,15.2028413 6.19499922,16.3980421 3.42705554,15.8833365 C2.7785793,15.7627508 1.96956079,15.296477 1,14.4845152 Z" id="Path-3"></path>
            </g>
        </g>
    </g>
</svg>