<?xml version="1.0" encoding="UTF-8" standalone="no"?><!DOCTYPE svg PUBLIC "-//W3C//DTD SVG 1.1//EN" "http://www.w3.org/Graphics/SVG/1.1/DTD/svg11.dtd"><svg width="100%" height="100%" viewBox="0 0 9 18" version="1.1" xmlns="http://www.w3.org/2000/svg" xmlns:xlink="http://www.w3.org/1999/xlink" xml:space="preserve" style="fill-rule:evenodd;clip-rule:evenodd;stroke-linejoin:round;stroke-miterlimit:1.41421;"><path d="M1.84,8.719l0,8.359c0,0.12 0.098,0.218 0.218,0.218l3.104,0c0.12,0 0.218,-0.098 0.218,-0.218l0,-8.495l2.25,0c0.113,0 0.208,-0.087 0.217,-0.199l0.217,-2.56c0.01,-0.127 -0.09,-0.236 -0.218,-0.236l-2.466,0l0,-1.816c0,-0.426 0.345,-0.771 0.771,-0.771l1.734,0c0.12,0 0.218,-0.097 0.218,-0.218l0,-2.56c0,-0.12 -0.098,-0.217 -0.218,-0.217l-2.931,0c-1.72,0 -3.114,1.394 -3.114,3.114l0,2.468l-1.552,0c-0.12,0 -0.218,0.097 -0.218,0.217l0,2.56c0,0.12 0.098,0.218 0.218,0.218l1.552,0l0,0.136Z" style="fill:#101c36;"/></svg>