<?xml version="1.0" encoding="UTF-8" standalone="no"?><!DOCTYPE svg PUBLIC "-//W3C//DTD SVG 1.1//EN" "http://www.w3.org/Graphics/SVG/1.1/DTD/svg11.dtd"><svg width="100%" height="100%" viewBox="0 0 19 19" version="1.1" xmlns="http://www.w3.org/2000/svg" xmlns:xlink="http://www.w3.org/1999/xlink" xml:space="preserve" style="fill-rule:evenodd;clip-rule:evenodd;stroke-linejoin:round;stroke-miterlimit:1.41421;"><path d="M16.402,12.776c0,2.061 -1.67,3.731 -3.731,3.731l-7.17,0c-2.061,0 -3.731,-1.67 -3.731,-3.731l0,-7.17c0,-2.061 1.67,-3.731 3.731,-3.731l7.17,0c2.061,0 3.731,1.67 3.731,3.731l0,7.17Zm1.702,-7.17c0,-3.001 -2.433,-5.433 -5.433,-5.433l-7.17,0c-3,0 -5.433,2.432 -5.433,5.433l0,7.17c0,3 2.433,5.433 5.433,5.433l7.17,0c3,0 5.433,-2.433 5.433,-5.433l0,-7.17Zm-8.988,6.554c-1.573,0 -2.853,-1.28 -2.853,-2.853c0,-1.573 1.28,-2.853 2.853,-2.853c1.574,0 2.853,1.28 2.853,2.853c0,1.573 -1.279,2.853 -2.853,2.853m0,-7.307c-2.455,0 -4.454,1.998 -4.454,4.454c0,2.456 1.999,4.454 4.454,4.454c2.456,0 4.454,-1.998 4.454,-4.454c0,-2.456 -1.998,-4.454 -4.454,-4.454m4.714,-1.36c-0.585,0 -1.06,0.475 -1.06,1.061c0,0.585 0.475,1.06 1.06,1.06c0.586,0 1.061,-0.475 1.061,-1.06c0,-0.586 -0.475,-1.061 -1.061,-1.061" style="fill:#101c36;fill-rule:nonzero;"/></svg>