<?xml version="1.0" encoding="UTF-8" standalone="no"?><!DOCTYPE svg PUBLIC "-//W3C//DTD SVG 1.1//EN" "http://www.w3.org/Graphics/SVG/1.1/DTD/svg11.dtd"><svg width="100%" height="100%" viewBox="0 0 16 11" version="1.1" xmlns="http://www.w3.org/2000/svg" xmlns:xlink="http://www.w3.org/1999/xlink" xml:space="preserve" style="fill-rule:evenodd;clip-rule:evenodd;stroke-linejoin:round;stroke-miterlimit:1.41421;"><path d="M0.274,10.154l2.775,0c0.133,0 0.24,-0.108 0.24,-0.241l0,-9.313c0,-0.133 -0.107,-0.24 -0.24,-0.24l-2.775,0c-0.133,0 -0.24,0.107 -0.24,0.24l0,9.313c0,0.133 0.107,0.241 0.24,0.241m14.756,-5.617l0,5.376c0,0.133 -0.107,0.241 -0.24,0.241l-2.776,0c-0.133,0 -0.24,-0.108 -0.24,-0.241l0,-5c0,-1.315 -0.47,-2.214 -1.649,-2.214c-0.9,0 -1.434,0.605 -1.671,1.191c-0.085,0.209 -0.108,0.5 -0.108,0.793l0,5.23c0,0.133 -0.107,0.241 -0.24,0.241l-2.774,0c-0.134,0 -0.242,-0.108 -0.241,-0.241c0.006,-1.331 0.034,-7.792 0.006,-9.31c-0.003,-0.135 0.106,-0.243 0.24,-0.243l2.769,0c0.133,0 0.241,0.107 0.241,0.24l0,1.147c-0.007,0.011 -0.016,0.022 -0.022,0.032l0.022,0l0,-0.032c0.432,-0.666 1.204,-1.617 2.935,-1.617c2.142,0 3.748,1.399 3.748,4.407" style="fill:#101c36;fill-rule:nonzero;"/></svg>