<?xml version="1.0" encoding="UTF-8" standalone="no"?><!DOCTYPE svg PUBLIC "-//W3C//DTD SVG 1.1//EN" "http://www.w3.org/Graphics/SVG/1.1/DTD/svg11.dtd"><svg width="100%" height="100%" viewBox="0 0 97 36" version="1.1" xmlns="http://www.w3.org/2000/svg" xmlns:xlink="http://www.w3.org/1999/xlink" xml:space="preserve" style="fill-rule:evenodd;clip-rule:evenodd;stroke-linejoin:round;stroke-miterlimit:1.41421;"><g id="Test.-logo"><path d="M96.3,30.703c0,2.633 -2.134,4.767 -4.767,4.767c-2.633,0 -4.767,-2.134 -4.767,-4.767c0,-2.633 2.134,-4.767 4.767,-4.767c2.633,0 4.767,2.134 4.767,4.767" style="fill:#c34449;fill-rule:nonzero;"/><path d="M32.07,19.559c0.062,-0.32 0.062,-0.721 0,-1.201c-0.062,-0.481 -0.216,-0.953 -0.462,-1.415c-0.247,-0.463 -0.618,-0.863 -1.111,-1.202c-0.493,-0.338 -1.126,-0.508 -1.896,-0.508c-1.08,0 -2.012,0.384 -2.799,1.149c-0.787,0.766 -1.179,1.824 -1.179,3.177l7.447,0Zm-15.312,2.723c0,-2.491 0.378,-4.609 1.134,-6.354c0.755,-1.744 1.711,-3.151 2.867,-4.219c1.157,-1.067 2.422,-1.842 3.794,-2.322c1.372,-0.481 2.66,-0.721 3.863,-0.721c2.374,0 4.348,0.49 5.921,1.468c1.572,0.98 2.79,2.243 3.654,3.791c0.863,1.549 1.388,3.293 1.573,5.234c0.185,1.94 0.076,3.889 -0.324,5.846l-14.525,0c0.215,0.713 0.555,1.318 1.018,1.816c0.462,0.499 1.009,0.908 1.642,1.228c0.632,0.32 1.325,0.552 2.082,0.694c0.755,0.143 1.533,0.214 2.336,0.214c1.264,0 2.412,-0.106 3.446,-0.321c1.033,-0.213 2.012,-0.515 2.937,-0.907l0,6.728c-1.049,0.427 -2.243,0.774 -3.585,1.041c-1.342,0.267 -2.891,0.4 -4.649,0.4c-1.82,0 -3.531,-0.293 -5.135,-0.881c-1.603,-0.587 -2.999,-1.459 -4.186,-2.616c-1.188,-1.156 -2.128,-2.58 -2.822,-4.272c-0.693,-1.69 -1.041,-3.639 -1.041,-5.847" style="fill:#fff;fill-rule:nonzero;"/><path d="M42.432,16.836c0,-1.566 0.27,-2.874 0.81,-3.925c0.539,-1.049 1.264,-1.886 2.173,-2.509c0.91,-0.623 1.943,-1.068 3.1,-1.335c1.156,-0.267 2.352,-0.401 3.585,-0.401c1.635,0 3.145,0.205 4.533,0.614c1.388,0.41 2.668,0.935 3.84,1.575l0,7.209c-0.494,-0.391 -1.057,-0.756 -1.688,-1.095c-0.633,-0.338 -1.296,-0.622 -1.99,-0.854c-0.694,-0.231 -1.395,-0.418 -2.104,-0.561c-0.71,-0.141 -1.388,-0.213 -2.036,-0.213c-0.494,0 -0.971,0.08 -1.433,0.24c-0.463,0.16 -0.694,0.507 -0.694,1.042c0,0.605 0.284,1.076 0.855,1.414c0.57,0.339 1.287,0.65 2.152,0.935c0.862,0.285 1.803,0.597 2.821,0.935c1.018,0.338 1.958,0.819 2.822,1.441c0.862,0.623 1.58,1.434 2.15,2.43c0.571,0.997 0.856,2.278 0.856,3.844c0,1.602 -0.293,2.937 -0.878,4.005c-0.586,1.068 -1.365,1.914 -2.336,2.536c-0.972,0.624 -2.098,1.068 -3.377,1.335c-1.28,0.267 -2.614,0.401 -4.002,0.401c-1.757,0 -3.392,-0.196 -4.903,-0.588c-1.511,-0.391 -2.853,-0.978 -4.025,-1.761l0,-7.209c1.233,0.926 2.629,1.611 4.187,2.056c1.557,0.445 2.999,0.667 4.325,0.667c1.943,0 2.914,-0.427 2.914,-1.281c0,-0.57 -0.285,-1.015 -0.856,-1.335c-0.571,-0.32 -1.288,-0.632 -2.151,-0.935c-0.863,-0.302 -1.804,-0.632 -2.821,-0.988c-1.018,-0.355 -1.959,-0.845 -2.822,-1.468c-0.864,-0.623 -1.581,-1.433 -2.151,-2.43c-0.571,-0.996 -0.856,-2.26 -0.856,-3.791" style="fill:#fff;fill-rule:nonzero;"/><path d="M79.809,28.29c-0.555,0.089 -1.157,0.134 -1.804,0.134c-1.943,0 -2.915,-1.05 -2.915,-3.151l0,-8.33l6.014,0l0,-7.476l-6.014,0l0,-9.344l-7.864,2.136l0,2.154l0.046,0l0,16.569l-0.046,0l0,6.107c0,1.708 0.232,3.124 0.694,4.245c0.463,1.121 1.08,2.021 1.851,2.696c0.77,0.677 1.657,1.157 2.66,1.442c1.001,0.285 2.042,0.427 3.122,0.427c2.22,0 4.225,-0.356 6.014,-1.068l0,-7.048c-0.618,0.249 -1.203,0.419 -1.758,0.507" style="fill:#fff;fill-rule:nonzero;"/><path d="M12.689,28.29c-0.555,0.089 -1.157,0.134 -1.804,0.134c-1.943,0 -2.915,-1.05 -2.915,-3.151l0,-8.33l6.014,0l0,-7.476l-6.014,0l0,-9.344l-7.864,2.136l0,7.208l-0.004,0l0,7.476l0.004,0l0,10.146c0,1.708 0.232,3.124 0.694,4.245c0.463,1.121 1.08,2.021 1.851,2.696c0.77,0.677 1.657,1.157 2.66,1.442c1.001,0.285 2.042,0.427 3.122,0.427c2.22,0 4.225,-0.356 6.014,-1.068l0,-7.048c-0.618,0.249 -1.203,0.419 -1.758,0.507" style="fill:#fff;fill-rule:nonzero;"/></g></svg>