<?xml version="1.0" encoding="UTF-8" standalone="no"?><!DOCTYPE svg PUBLIC "-//W3C//DTD SVG 1.1//EN" "http://www.w3.org/Graphics/SVG/1.1/DTD/svg11.dtd"><svg width="100%" height="100%" viewBox="0 0 129 48" version="1.1" xmlns="http://www.w3.org/2000/svg" xmlns:xlink="http://www.w3.org/1999/xlink" xml:space="preserve" style="fill-rule:evenodd;clip-rule:evenodd;stroke-linejoin:round;stroke-miterlimit:1.41421;"><g id="logo.-blue"><path d="M128.28,40.926c0,3.509 -2.844,6.353 -6.353,6.353c-3.508,0 -6.353,-2.844 -6.353,-6.353c0,-3.508 2.845,-6.353 6.353,-6.353c3.509,0 6.353,2.845 6.353,6.353" style="fill:#c34449;fill-rule:nonzero;"/><path d="M42.685,26.075c0.082,-0.427 0.082,-0.96 0,-1.601c-0.083,-0.641 -0.288,-1.268 -0.616,-1.886c-0.33,-0.616 -0.823,-1.15 -1.481,-1.601c-0.657,-0.451 -1.5,-0.676 -2.527,-0.676c-1.438,0 -2.681,0.511 -3.73,1.53c-1.048,1.021 -1.571,2.432 -1.571,4.234l9.925,0Zm-20.405,3.629c0,-3.319 0.503,-6.143 1.51,-8.468c1.006,-2.324 2.281,-4.199 3.822,-5.621c1.542,-1.424 3.226,-2.456 5.055,-3.096c1.828,-0.641 3.544,-0.96 5.147,-0.96c3.165,0 5.795,0.652 7.891,1.956c2.096,1.307 3.719,2.99 4.87,5.053c1.151,2.063 1.85,4.388 2.097,6.973c0.246,2.587 0.101,5.183 -0.432,7.792l-19.357,0c0.287,0.95 0.739,1.757 1.357,2.42c0.615,0.665 1.345,1.21 2.188,1.636c0.841,0.427 1.766,0.737 2.774,0.925c1.006,0.191 2.044,0.285 3.113,0.285c1.685,0 3.215,-0.142 4.593,-0.426c1.376,-0.284 2.681,-0.688 3.914,-1.21l0,8.966c-1.398,0.569 -2.99,1.032 -4.778,1.387c-1.788,0.357 -3.853,0.533 -6.195,0.533c-2.426,0 -4.706,-0.39 -6.843,-1.172c-2.137,-0.783 -3.997,-1.946 -5.579,-3.488c-1.582,-1.541 -2.835,-3.438 -3.76,-5.693c-0.924,-2.252 -1.387,-4.85 -1.387,-7.792" style="fill:#101c36;fill-rule:nonzero;"/><path d="M56.492,22.446c0,-2.087 0.36,-3.83 1.079,-5.23c0.718,-1.399 1.685,-2.514 2.898,-3.345c1.211,-0.829 2.588,-1.423 4.13,-1.779c1.541,-0.356 3.134,-0.533 4.778,-0.533c2.178,0 4.192,0.273 6.041,0.818c1.849,0.546 3.554,1.245 5.116,2.099l0,9.607c-0.657,-0.522 -1.407,-1.008 -2.25,-1.459c-0.842,-0.45 -1.726,-0.829 -2.65,-1.138c-0.925,-0.309 -1.86,-0.558 -2.805,-0.748c-0.946,-0.189 -1.85,-0.285 -2.712,-0.285c-0.659,0 -1.295,0.107 -1.912,0.321c-0.616,0.213 -0.924,0.676 -0.924,1.388c0,0.806 0.379,1.434 1.14,1.885c0.76,0.452 1.716,0.866 2.867,1.245c1.15,0.381 2.404,0.796 3.76,1.246c1.357,0.451 2.61,1.092 3.761,1.921c1.149,0.831 2.105,1.91 2.866,3.238c0.76,1.329 1.141,3.036 1.141,5.123c0,2.135 -0.391,3.914 -1.172,5.337c-0.78,1.424 -1.819,2.551 -3.113,3.38c-1.294,0.831 -2.795,1.424 -4.5,1.78c-1.706,0.356 -3.483,0.533 -5.333,0.533c-2.342,0 -4.52,-0.261 -6.534,-0.783c-2.014,-0.521 -3.802,-1.304 -5.363,-2.348l0,-9.606c1.643,1.233 3.503,2.146 5.579,2.739c2.074,0.594 3.996,0.89 5.763,0.89c2.59,0 3.885,-0.57 3.885,-1.708c0,-0.758 -0.381,-1.352 -1.141,-1.779c-0.761,-0.427 -1.717,-0.842 -2.866,-1.246c-1.152,-0.402 -2.405,-0.841 -3.761,-1.316c-1.356,-0.474 -2.61,-1.126 -3.761,-1.956c-1.15,-0.83 -2.106,-1.91 -2.866,-3.239c-0.761,-1.327 -1.141,-3.012 -1.141,-5.052" style="fill:#101c36;fill-rule:nonzero;"/><path d="M106.303,37.71c-0.74,0.119 -1.542,0.178 -2.404,0.178c-2.589,0 -3.884,-1.399 -3.884,-4.198l0,-11.101l8.014,0l0,-9.963l-8.014,0l0,-12.453l-10.48,2.846l0,2.872l0.061,0l0,22.08l-0.061,0l0,8.138c0,2.277 0.309,4.163 0.925,5.658c0.616,1.494 1.438,2.693 2.466,3.593c1.026,0.902 2.209,1.541 3.544,1.921c1.335,0.379 2.723,0.569 4.162,0.569c2.959,0 5.629,-0.474 8.014,-1.423l0,-9.392c-0.823,0.331 -1.603,0.557 -2.343,0.675" style="fill:#101c36;fill-rule:nonzero;"/><path d="M16.856,37.71c-0.74,0.119 -1.542,0.178 -2.404,0.178c-2.589,0 -3.885,-1.399 -3.885,-4.198l0,-11.101l8.015,0l0,-9.963l-8.015,0l0,-12.453l-10.479,2.846l0,9.607l-0.006,0l0,9.963l0.006,0l0,13.52c0,2.277 0.309,4.163 0.925,5.658c0.616,1.494 1.438,2.693 2.466,3.593c1.026,0.902 2.208,1.541 3.544,1.921c1.335,0.379 2.722,0.569 4.162,0.569c2.959,0 5.629,-0.474 8.014,-1.423l0,-9.392c-0.823,0.331 -1.603,0.557 -2.343,0.675" style="fill:#101c36;fill-rule:nonzero;"/></g></svg>